<svg xmlns="http://www.w3.org/2000/svg" width="1600" height="900" viewBox="0 0 1600 900">
<defs><linearGradient id="bg" x1="0" y1="0" x2="1" y2="1"><stop stop-color="#071620"/><stop offset="1" stop-color="#102f43"/></linearGradient><linearGradient id="c" x1="0" y1="0" x2="1" y2="1"><stop stop-color="#31dce8"/><stop offset="1" stop-color="#159fbd"/></linearGradient><linearGradient id="o" x1="0" y1="0" x2="1" y2="1"><stop stop-color="#ffb15d"/><stop offset="1" stop-color="#f27a22"/></linearGradient></defs>
<rect width="1600" height="900" rx="34" fill="url(#bg)"/>
<g fill="#102938" stroke="#2c6074" stroke-width="4"><rect x="48" y="95" width="265" height="320" rx="30"/><rect x="357" y="95" width="265" height="320" rx="30"/><rect x="666" y="95" width="265" height="320" rx="30"/><rect x="975" y="95" width="265" height="320" rx="30"/><rect x="1284" y="95" width="265" height="320" rx="30"/></g>
<g fill="url(#c)" font-family="system-ui" font-size="34" font-weight="800" text-anchor="middle"><rect x="78" y="66" width="66" height="66" rx="18"/><rect x="387" y="66" width="66" height="66" rx="18"/><rect x="696" y="66" width="66" height="66" rx="18"/><rect x="1005" y="66" width="66" height="66" rx="18"/><rect x="1314" y="66" width="66" height="66" rx="18"/><text x="111" y="111" fill="#fff">1</text><text x="420" y="111" fill="#fff">2</text><text x="729" y="111" fill="#fff">3</text><text x="1038" y="111" fill="#fff">4</text><text x="1347" y="111" fill="#fff">5</text></g>
<g fill="none" stroke="#2bd5e3" stroke-width="10" stroke-linecap="round" stroke-linejoin="round"><g transform="translate(112 165)"><circle cx="68" cy="48" r="25"/><circle cx="28" cy="88" r="18"/><circle cx="108" cy="88" r="18"/><path d="M38 142c4-35 15-52 30-52s26 17 30 52M4 142c2-25 10-38 24-38m104 38c-2-25-10-38-24-38"/></g><g transform="translate(421 166)"><circle cx="68" cy="72" r="45"/><path d="M68 6v24m0 84v24M2 72h24m84 0h24M22 26l17 17m58 58 17 17m0-92-17 17m-58 58-17 17"/></g><g transform="translate(724 182)"><path d="M10 130h130M20 105l30-28 29 16 35-54 26 18"/><circle cx="50" cy="77" r="8" fill="#2bd5e3"/><circle cx="79" cy="93" r="8" fill="#2bd5e3"/><circle cx="114" cy="39" r="8" fill="#2bd5e3"/></g><g transform="translate(1030 165)"><path d="M10 15h82l28 28v115H10zM92 15v30h28M32 73h66M32 101h66M32 129h45"/></g><g transform="translate(1331 174)"><path d="M15 32h105M15 72h105M15 112h105"/><path d="m84 13 36 19-36 19m-33 2L15 72l36 19m33 2 36 19-36 19"/></g></g>
<g stroke="#2bd5e3" stroke-width="8" fill="none" stroke-linecap="round"><path d="M313 255h44M622 255h44M931 255h44M1240 255h44"/></g><path d="M1416 415v95H785" fill="none" stroke="#2bd5e3" stroke-width="6"/><path d="M785 510v45m315-45v45m315-45v45" stroke="#2bd5e3" stroke-width="6"/>
<g><rect x="645" y="555" width="280" height="210" rx="28" fill="#102938" stroke="#f36b45" stroke-width="4"/><rect x="960" y="555" width="280" height="210" rx="28" fill="#102938" stroke="#2bd5e3" stroke-width="4"/><rect x="1275" y="555" width="280" height="210" rx="28" fill="#102938" stroke="#2bd5e3" stroke-width="4"/></g>
<g transform="translate(723 592)"><path d="m62 0 45 18 19 45-19 45-45 18-45-18L0 63l17-45z" fill="url(#o)"/><path d="M40 42l44 44M84 42 40 86" stroke="#fff" stroke-width="12"/></g><g transform="translate(1034 590)" fill="none" stroke="#2bd5e3" stroke-width="10"><path d="M47 0h46M58 0v47L20 112c-12 21 3 45 27 45h46c24 0 39-24 27-45L82 47V0"/><path d="M45 107h55"/></g><g transform="translate(1348 592)" fill="none" stroke="#2bd5e3" stroke-width="10"><path d="M0 146V72l42 22V56l45 25V31l65 34v81z"/><circle cx="130" cy="123" r="40" fill="#159fbd"/><path d="m110 123 14 14 27-34" stroke="#071620"/></g>
<g opacity=".6" stroke="#6d8999" stroke-width="3"><path d="M95 360h170M404 360h170M713 360h170M1022 360h170M1331 360h170"/></g>
</svg>