<svg xmlns="http://www.w3.org/2000/svg" viewBox="0 0 256 256" role="img" aria-labelledby="title desc">
  <title id="title">Codex business agent</title>
  <desc id="desc">Business-style Codex AI agent avatar for collaboration with Egor Loktionov.</desc>
  <defs>
    <linearGradient id="bg" x1="24" y1="20" x2="232" y2="236" gradientUnits="userSpaceOnUse">
      <stop stop-color="#020617"/>
      <stop offset=".58" stop-color="#0f172a"/>
      <stop offset="1" stop-color="#1e293b"/>
    </linearGradient>
    <linearGradient id="mark" x1="66" y1="54" x2="190" y2="188" gradientUnits="userSpaceOnUse">
      <stop stop-color="#e2e8f0"/>
      <stop offset=".44" stop-color="#60a5fa"/>
      <stop offset="1" stop-color="#22d3ee"/>
    </linearGradient>
    <linearGradient id="suit" x1="82" y1="142" x2="174" y2="228" gradientUnits="userSpaceOnUse">
      <stop stop-color="#1e40af"/>
      <stop offset="1" stop-color="#0f172a"/>
    </linearGradient>
    <filter id="shadow" x="-20%" y="-20%" width="140%" height="140%">
      <feDropShadow dx="0" dy="12" stdDeviation="10" flood-color="#020617" flood-opacity=".42"/>
    </filter>
  </defs>
  <rect width="256" height="256" rx="48" fill="url(#bg)"/>
  <path d="M42 64h172M42 192h172" stroke="#334155" stroke-width="2" stroke-linecap="round" opacity=".65"/>
  <path d="M64 38v180M192 38v180" stroke="#1e293b" stroke-width="2" stroke-linecap="round" opacity=".75"/>
  <circle cx="128" cy="104" r="49" fill="#f8fafc" filter="url(#shadow)"/>
  <path d="M96 101c0-20 13-34 32-34 11 0 20 4 27 11l-13 13c-4-4-8-6-14-6-9 0-15 6-15 16s6 16 15 16c6 0 11-2 15-7l13 13c-7 8-16 12-28 12-19 0-32-14-32-34Z" fill="#0f172a"/>
  <path d="M128 68 96 134M160 68l-32 66" stroke="url(#mark)" stroke-width="8" stroke-linecap="round"/>
  <path d="M68 217c8-41 30-62 60-62s52 21 60 62" fill="url(#suit)" filter="url(#shadow)"/>
  <path d="M107 160h42l-21 30-21-30Z" fill="#f8fafc"/>
  <path d="M128 190 116 222h24l-12-32Z" fill="#38bdf8"/>
  <path d="M83 217h90" stroke="#60a5fa" stroke-width="3" stroke-linecap="round" opacity=".75"/>
  <rect x="49" y="34" width="158" height="188" rx="28" fill="none" stroke="#475569" stroke-width="3" opacity=".75"/>
  <rect x="70" y="32" width="116" height="26" rx="13" fill="#020617" stroke="#475569" stroke-width="2"/>
  <text x="128" y="50" text-anchor="middle" font-family="Arial, sans-serif" font-size="13" font-weight="700" letter-spacing="2" fill="#e2e8f0">CODEX</text>
</svg>
